# This file uses centimeters as units for non-parametric coordinates.

mtllib top_column.mtl
g default
v -58.706291 13.319643 8.249697
v -58.706291 13.349354 8.279408
v -58.736000 13.349354 8.249697
v 10.444139 13.349354 8.249697
v 10.414429 13.349354 8.279408
v 10.414429 13.319643 8.249697
v -58.765160 13.913915 8.250248
v -58.736000 13.885306 8.250799
v -58.707279 13.893604 8.279408
v -58.713398 13.936515 8.279408
v -58.756310 13.942637 8.279408
v 10.464450 13.942637 8.279408
v 10.421539 13.936515 8.279408
v 10.414154 13.892712 8.279408
v 10.444139 13.884755 8.250248
v 10.473299 13.913915 8.250248
v -58.757008 14.478475 8.279408
v -58.714993 14.478475 8.279408
v -58.714993 14.508185 8.249697
v -58.757008 14.508185 8.249697
v 10.465148 14.508185 8.249697
v 10.423131 14.508185 8.249697
v 10.423131 14.478475 8.279408
v 10.465148 14.478475 8.279408
v -58.757008 14.508185 7.706144
v -58.714993 14.508185 7.706144
v -58.714993 14.508185 7.664127
v -58.757008 14.508185 7.664127
v 10.465148 14.508185 7.664127
v 10.423131 14.508185 7.664127
v 10.423131 14.508185 7.706144
v 10.465148 14.508185 7.706144
v -58.757008 14.508185 7.120574
v -58.714993 14.508185 7.120574
v -58.714993 14.478475 7.090863
v -58.757008 14.478475 7.090863
v 10.465148 14.478475 7.090863
v 10.423131 14.478475 7.090863
v 10.423131 14.508185 7.120574
v 10.465148 14.508185 7.120574
v -58.756310 13.942637 7.090863
v -58.713398 13.936515 7.090863
v -58.706013 13.892712 7.090863
v -58.736000 13.884755 7.120023
v -58.765160 13.913915 7.120023
v 10.473299 13.913915 7.120023
v 10.444139 13.885306 7.119472
v 10.415417 13.893604 7.090863
v 10.421539 13.936515 7.090863
v 10.464450 13.942637 7.090863
v -58.736000 13.349354 7.120574
v -58.706291 13.349354 7.090863
v -58.706291 13.319643 7.120574
v 10.414429 13.319643 7.120574
v 10.414429 13.349354 7.090863
v 10.444139 13.349354 7.120574
v -58.736000 13.349354 7.664127
v -58.706291 13.319643 7.664127
v -58.706291 13.319643 7.706144
v -58.736000 13.349354 7.706144
v 10.444139 13.349354 7.706144
v 10.414429 13.319643 7.706144
v 10.414429 13.319643 7.664127
v 10.444139 13.349354 7.664127
v 10.473850 13.913915 7.706144
v 10.444139 13.884204 7.706144
v 10.444139 13.884204 7.664127
v 10.473850 13.913915 7.664127
v -58.765709 13.913915 7.664127
v -58.736000 13.884204 7.664127
v -58.736000 13.884204 7.706144
v -58.765709 13.913915 7.706144
v 11.370626 13.943625 7.120574
v 11.340916 13.913915 7.120574
v 11.340916 13.943625 7.090863
v 11.340916 13.913915 7.706144
v 11.340916 13.913915 7.664127
v 11.370626 13.943625 7.664127
v 11.370626 13.943625 7.706144
v 11.370626 14.478475 7.120574
v 11.340916 14.478475 7.090863
v 11.340916 14.508185 7.120574
v 11.370626 14.478475 7.706144
v 11.370626 14.478475 7.664127
v 11.340916 14.508185 7.664127
v 11.340916 14.508185 7.706144
v 11.340916 13.943625 8.279408
v 11.340916 13.913915 8.249697
v 11.370626 13.943625 8.249697
v 11.370626 14.478475 8.249697
v 11.340916 14.508185 8.249697
v 11.340916 14.478475 8.279408
v -59.632778 13.943625 7.090863
v -59.632778 13.913915 7.120574
v -59.662487 13.943625 7.120574
v -59.662487 13.943625 7.706144
v -59.662487 13.943625 7.664127
v -59.632778 13.913915 7.664127
v -59.632778 13.913915 7.706144
v -59.632778 14.508185 7.706144
v -59.632778 14.508185 7.664127
v -59.662487 14.478475 7.664127
v -59.662487 14.478475 7.706144
v -59.662487 14.478475 7.120574
v -59.632778 14.508185 7.120574
v -59.632778 14.478475 7.090863
v -59.662487 13.943625 8.249697
v -59.632778 13.913915 8.249697
v -59.632778 13.943625 8.279408
v -59.662487 14.478475 8.249697
v -59.632778 14.478475 8.279408
v -59.632778 14.508185 8.249697
vt 0.040838 0.961227
vt 0.041398 0.961227
vt 0.041398 0.968359
vt 0.040838 0.968359
vt 0.040838 0.960831
vt 0.041398 0.960831
vt 0.048646 0.961227
vt 0.048661 0.968373
vt 0.040838 0.968755
vt 0.041398 0.968755
vt 0.033590 0.961228
vt 0.033583 0.968367
vt 0.033590 0.960831
vt 0.048646 0.960831
vt 0.049042 0.961227
vt 0.049042 0.968484
vt 0.048653 0.968755
vt 0.033583 0.968755
vt 0.033194 0.968473
vt 0.033194 0.961228
vt 0.041398 0.038773
vt 0.040838 0.038773
vt 0.040838 0.031641
vt 0.041398 0.031641
vt 0.041398 0.039169
vt 0.040838 0.039169
vt 0.033590 0.038773
vt 0.033575 0.031626
vt 0.041398 0.031245
vt 0.040838 0.031245
vt 0.048646 0.038773
vt 0.048653 0.031634
vt 0.048646 0.039169
vt 0.033590 0.039169
vt 0.033194 0.031516
vt 0.033194 0.038773
vt 0.033583 0.031245
vt 0.048653 0.031245
vt 0.049042 0.038773
vt 0.049042 0.031527
vt 0.041410 0.019288
vt 0.040850 0.019287
vt 0.040857 0.012155
vt 0.041417 0.012156
vt 0.041410 0.019684
vt 0.040849 0.019683
vt 0.033602 0.019280
vt 0.033609 0.012148
vt 0.040857 0.011759
vt 0.041418 0.011760
vt 0.048658 0.019295
vt 0.048665 0.012163
vt 0.033602 0.019676
vt 0.048657 0.019691
vt 0.033206 0.019279
vt 0.033213 0.012148
vt 0.033610 0.011752
vt 0.048665 0.011767
vt 0.049054 0.019295
vt 0.049061 0.012164
vt 0.040849 0.980714
vt 0.041409 0.980713
vt 0.041416 0.987845
vt 0.040856 0.987845
vt 0.040849 0.980318
vt 0.041409 0.980317
vt 0.048657 0.980706
vt 0.048664 0.987838
vt 0.041417 0.988241
vt 0.040856 0.988242
vt 0.033601 0.980721
vt 0.033608 0.987852
vt 0.033601 0.980324
vt 0.048657 0.980310
vt 0.049053 0.980706
vt 0.049060 0.987838
vt 0.048664 0.988234
vt 0.033609 0.988249
vt 0.033205 0.980721
vt 0.033212 0.987853
vt 0.064494 0.961508
vt 0.064494 0.960947
vt 0.071742 0.960947
vt 0.071742 0.961508
vt 0.064098 0.961508
vt 0.064098 0.960947
vt 0.064494 0.039053
vt 0.071742 0.039053
vt 0.072302 0.960947
vt 0.072302 0.961508
vt 0.071742 0.973185
vt 0.064494 0.973185
vt 0.064098 0.039053
vt 0.064098 0.973185
vt 0.064494 0.038493
vt 0.071742 0.038493
vt 0.072302 0.039053
vt 0.079550 0.960947
vt 0.079550 0.961508
vt 0.072302 0.973185
vt 0.064098 0.038493
vt 0.064494 0.026815
vt 0.071742 0.026815
vt 0.072302 0.038493
vt 0.079550 0.039053
vt 0.079946 0.960947
vt 0.079946 0.961508
vt 0.079550 0.973185
vt 0.064098 0.026815
vt 0.072302 0.026815
vt 0.079550 0.038493
vt 0.079946 0.039053
vt 0.079946 0.973185
vt 0.079550 0.026815
vt 0.079946 0.038493
vt 0.079946 0.026815
vt 0.041398 0.960831
vt 0.041398 0.039169
vt 0.048646 0.960831
vt 0.048646 0.039169
vt 0.033194 0.960831
vt 0.033194 0.039169
vt 0.049042 0.960831
vt 0.049042 0.039169
vt 0.041398 0.031245
vt 0.041410 0.019684
vt 0.048653 0.031260
vt 0.048657 0.019691
vt 0.033194 0.031362
vt 0.033205 0.019675
vt 0.049042 0.031378
vt 0.049053 0.019691
vt 0.041398 0.968755
vt 0.040849 0.980317
vt 0.048654 0.968741
vt 0.033601 0.980324
vt 0.049042 0.968623
vt 0.049053 0.980310
vt 0.033194 0.968637
vt 0.033205 0.980324
vt 0.056871 0.960926
vt 0.056299 0.960845
vt 0.056287 0.039172
vt 0.056871 0.039074
vt 0.056570 0.961616
vt 0.056188 0.961228
vt 0.056953 0.961498
vt 0.056953 0.038502
vt 0.056181 0.038773
vt 0.056570 0.038384
vt 0.064098 0.961508
vt 0.064098 0.038492
vt 0.064098 0.973185
vt 0.056966 0.973185
vt 0.056966 0.026815
vt 0.064098 0.026815
vt 0.079946 0.961508
vt 0.087172 0.960926
vt 0.087091 0.961498
vt 0.087172 0.039074
vt 0.087757 0.960827
vt 0.087863 0.961227
vt 0.087474 0.961616
vt 0.087077 0.973185
vt 0.079946 0.973185
vt 0.079946 0.038492
vt 0.087091 0.038502
vt 0.087745 0.039155
vt 0.079946 0.026815
vt 0.087077 0.026815
vt 0.087474 0.038384
vt 0.087855 0.038772
vt 0.095002 0.960831
vt 0.095002 0.039169
vn -0.707103 -0.707110 0.000000
vn -0.707103 -0.707110 0.000000
vn -0.707103 -0.707110 0.000000
vn -0.707103 -0.707110 0.000000
vn 0.000000 -0.707114 0.707100
vn 0.000000 -0.707114 0.707100
vn 0.000000 -0.707114 0.707100
vn 0.000000 -0.707114 0.707100
vn -0.706344 -0.001366 0.707868
vn -0.706344 -0.001366 0.707868
vn -0.675161 -0.055275 0.735597
vn -0.678120 -0.050393 0.733221
vn 0.707103 -0.707110 0.000000
vn 0.707103 -0.707110 0.000000
vn 0.707103 -0.707110 0.000000
vn 0.707103 -0.707110 0.000000
vn 0.702157 -0.000186 0.712022
vn 0.702157 -0.000186 0.712022
vn 0.673734 -0.050479 0.737248
vn 0.671850 -0.053648 0.738742
vn -0.000625 -0.709691 0.704513
vn -0.000625 -0.709691 0.704513
vn -0.000625 -0.709691 0.704513
vn -0.000625 -0.709691 0.704513
vn -0.703782 -0.710416 0.001074
vn -0.703782 -0.710416 0.001074
vn -0.704028 -0.710171 0.000996
vn -0.704029 -0.710171 0.000996
vn 0.000000 0.000000 1.000000
vn -0.000000 0.000000 1.000000
vn -0.000000 0.000000 1.000000
vn 0.000000 0.000000 1.000000
vn -0.000000 0.000000 1.000000
vn 0.000000 0.000000 1.000000
vn -0.000000 0.000000 1.000000
vn 0.000625 -0.709690 0.704514
vn 0.000625 -0.709690 0.704514
vn 0.000625 -0.709690 0.704514
vn 0.000625 -0.709690 0.704514
vn 0.000000 0.000000 1.000000
vn 0.000000 0.000000 1.000000
vn 0.000000 0.000000 1.000000
vn 0.707101 -0.707112 0.000717
vn 0.707101 -0.707112 0.000717
vn 0.707102 -0.707112 0.000665
vn 0.707102 -0.707112 0.000665
vn 0.000000 0.707105 0.707109
vn 0.000000 0.707105 0.707109
vn 0.000000 0.707104 0.707110
vn 0.000000 0.707104 0.707110
vn 0.000000 0.707098 0.707116
vn 0.000000 0.707098 0.707116
vn 0.000000 0.707098 0.707116
vn 0.000000 0.707098 0.707116
vn 0.000000 1.000000 0.000000
vn 0.000000 1.000000 0.000000
vn 0.000000 1.000000 0.000000
vn 0.000000 1.000000 0.000000
vn 0.000000 0.707115 0.707099
vn 0.000000 0.707115 0.707099
vn 0.000000 0.707115 0.707098
vn 0.000000 0.707115 0.707098
vn 0.000000 1.000000 0.000000
vn 0.000000 1.000000 0.000000
vn 0.000000 1.000000 0.000000
vn 0.000000 1.000000 0.000000
vn 0.000000 1.000000 0.000000
vn 0.000000 1.000000 0.000000
vn 0.000000 1.000000 0.000000
vn 0.000000 1.000000 0.000000
vn 0.000000 1.000000 0.000000
vn 0.000000 1.000000 0.000000
vn 0.000000 1.000000 0.000000
vn 0.000000 1.000000 0.000000
vn 0.000000 1.000000 0.000000
vn 0.000000 1.000000 0.000000
vn 0.000000 1.000000 0.000000
vn 0.000000 1.000000 0.000000
vn 0.000000 0.707105 -0.707109
vn 0.000000 0.707105 -0.707109
vn 0.000000 0.707104 -0.707110
vn 0.000000 0.707104 -0.707110
vn 0.000000 0.707098 -0.707116
vn 0.000000 0.707098 -0.707116
vn 0.000000 0.707098 -0.707116
vn 0.000000 0.707098 -0.707116
vn 0.000000 0.000000 -1.000000
vn 0.000000 0.000000 -1.000000
vn 0.000000 0.000000 -1.000000
vn 0.000000 0.000000 -1.000000
vn 0.000000 0.707115 -0.707099
vn 0.000000 0.707115 -0.707099
vn 0.000000 0.707115 -0.707098
vn 0.000000 0.707115 -0.707098
vn 0.000000 0.000000 -1.000000
vn -0.000000 0.000000 -1.000000
vn -0.000000 0.000000 -1.000000
vn 0.000000 0.000000 -1.000000
vn -0.000625 -0.709691 -0.704513
vn -0.000625 -0.709691 -0.704513
vn -0.000625 -0.709691 -0.704513
vn -0.000625 -0.709691 -0.704513
vn 0.000000 0.000000 -1.000000
vn 0.000000 0.000000 -1.000000
vn -0.673727 -0.050477 -0.737255
vn -0.671843 -0.053645 -0.738749
vn -0.702151 -0.000181 -0.712028
vn -0.702151 -0.000181 -0.712028
vn -0.707102 -0.707111 -0.000715
vn -0.707102 -0.707111 -0.000715
vn -0.707107 -0.707106 -0.000663
vn -0.707107 -0.707106 -0.000663
vn 0.000625 -0.709690 -0.704514
vn 0.000625 -0.709690 -0.704514
vn 0.000625 -0.709690 -0.704514
vn 0.000625 -0.709690 -0.704514
vn 0.703772 -0.710426 -0.001077
vn 0.703772 -0.710426 -0.001077
vn 0.704014 -0.710185 -0.000999
vn 0.704014 -0.710185 -0.000999
vn 0.675135 -0.055275 -0.735621
vn 0.678093 -0.050396 -0.733247
vn 0.706315 -0.001368 -0.707896
vn 0.706316 -0.001368 -0.707896
vn -0.707146 -0.707068 0.000000
vn -0.707146 -0.707068 0.000000
vn -0.707143 -0.707071 0.000000
vn -0.707143 -0.707071 0.000000
vn 0.000000 -0.707114 -0.707100
vn 0.000000 -0.707114 -0.707100
vn 0.000000 -0.707114 -0.707100
vn 0.000000 -0.707114 -0.707100
vn 0.707104 -0.707110 0.000000
vn 0.707104 -0.707110 0.000000
vn 0.707104 -0.707110 0.000000
vn 0.707104 -0.707110 0.000000
vn -1.000000 -0.000002 0.000000
vn -1.000000 0.000000 0.000000
vn -1.000000 0.000000 0.000000
vn -1.000000 -0.000002 0.000000
vn 0.000000 -1.000000 0.000000
vn 0.000000 -1.000000 0.000000
vn 0.000000 -1.000000 0.000000
vn 0.000000 -1.000000 0.000000
vn 1.000000 0.000001 0.000000
vn 1.000000 0.000000 0.000000
vn 1.000000 0.000000 0.000000
vn 1.000000 0.000001 0.000000
vn 0.000000 -1.000000 0.000000
vn 0.000000 -1.000000 0.000000
vn 0.000000 -1.000000 0.000000
vn 0.000000 -1.000000 0.000000
vn 0.000000 -1.000000 -0.000002
vn 0.000000 -1.000000 0.000002
vn 0.000000 -1.000000 0.000002
vn 0.000000 -1.000000 -0.000002
vn 0.707108 0.000000 -0.707105
vn 0.707108 0.000000 -0.707105
vn 0.707108 0.000000 -0.707105
vn 0.707108 0.000000 -0.707105
vn 0.707114 -0.707099 0.000000
vn 0.707114 -0.707099 0.000000
vn 0.707114 -0.707100 0.000000
vn 0.707114 -0.707100 0.000000
vn 0.707103 -0.707110 0.000000
vn 0.707103 -0.707110 0.000000
vn 0.707103 -0.707110 0.000000
vn 0.707103 -0.707110 0.000000
vn 1.000000 0.000000 0.000000
vn 1.000000 0.000000 0.000000
vn 1.000000 0.000000 0.000000
vn 1.000000 0.000000 0.000000
vn 0.707114 0.707099 0.000000
vn 0.707114 0.707099 0.000000
vn 0.707114 0.707100 0.000000
vn 0.707114 0.707100 0.000000
vn 0.707103 0.707110 0.000000
vn 0.707103 0.707110 0.000000
vn 0.707103 0.707110 0.000000
vn 0.707103 0.707110 0.000000
vn 0.707103 0.000000 0.707111
vn 0.707103 0.000000 0.707111
vn 0.707103 0.000000 0.707111
vn 0.707103 0.000000 0.707111
vn -0.707131 0.000000 -0.707083
vn -0.707131 0.000000 -0.707083
vn -0.707131 0.000000 -0.707083
vn -0.707131 0.000000 -0.707083
vn -0.707146 -0.707068 0.000000
vn -0.707146 -0.707068 0.000000
vn -0.707148 -0.707066 0.000000
vn -0.707148 -0.707066 0.000000
vn -0.707147 -0.707066 0.000000
vn -0.707147 -0.707066 0.000000
vn -0.707145 -0.707069 0.000000
vn -0.707145 -0.707069 0.000000
vn -1.000000 0.000000 0.000000
vn -1.000000 0.000000 0.000000
vn -1.000000 0.000000 0.000000
vn -1.000000 0.000000 0.000000
vn -0.707147 0.707066 0.000000
vn -0.707147 0.707066 0.000000
vn -0.707145 0.707069 0.000000
vn -0.707145 0.707069 0.000000
vn -0.707148 0.707066 0.000000
vn -0.707148 0.707066 0.000000
vn -0.707146 0.707068 0.000000
vn -0.707146 0.707068 0.000000
vn -0.707125 0.000000 0.707088
vn -0.707125 0.000000 0.707088
vn -0.707125 0.000000 0.707088
vn -0.707125 0.000000 0.707088
vn -0.000000 0.000000 1.000000
vn -0.000000 0.000000 1.000000
vn 0.000000 0.000000 -1.000000
vn 0.000000 0.000000 -1.000000
vn 0.000000 -1.000000 0.000000
vn 0.000000 -1.000000 0.000000
vn 0.000000 -1.000000 0.000000
vn 0.000000 -1.000000 0.000000
vn 1.000000 0.000000 0.000000
vn 1.000000 0.000000 0.000000
vn 1.000000 0.000001 0.000000
vn 1.000000 0.000001 0.000000
vn 1.000000 0.000000 0.000000
vn 1.000000 0.000000 0.000000
vn 1.000000 0.000000 0.000000
vn 1.000000 0.000000 0.000000
vn -1.000000 -0.000002 0.000000
vn -1.000000 -0.000002 0.000000
vn -1.000000 0.000000 0.000000
vn -1.000000 0.000000 0.000000
vn -1.000000 0.000000 0.000000
vn -1.000000 0.000000 0.000000
vn -1.000000 0.000000 0.000000
vn -1.000000 0.000000 0.000000
vn 0.000000 -1.000000 0.000000
vn 0.000000 -1.000000 0.000000
vn -0.000000 0.000000 -1.000000
vn -0.000000 0.000000 -1.000000
vn 0.000000 1.000000 0.000000
vn 0.000000 -1.000000 0.000000
vn 0.000000 -1.000000 0.000000
vn 0.000000 1.000000 0.000000
vn 0.000000 0.000000 1.000000
vn 0.000000 0.000000 1.000000
vn 0.000000 -1.000000 -0.000002
vn 0.000000 -1.000000 -0.000002
vn 0.000000 1.000000 0.000000
vn 0.000000 0.000000 -1.000000
vn 0.000000 0.000000 -1.000000
vn 0.000000 -1.000000 0.000002
vn 0.000000 -1.000000 0.000002
vn -0.000000 0.000000 1.000000
vn -0.000000 0.000000 1.000000
vn 0.000000 1.000000 0.000000
vn -0.577337 -0.577415 0.577298
vn -0.577337 -0.577415 0.577298
vn -0.577337 -0.577415 0.577298
vn 0.577363 -0.577324 0.577363
vn 0.577363 -0.577324 0.577363
vn 0.577363 -0.577324 0.577363
vn -0.396332 -0.395494 0.828556
vn -0.396332 -0.395494 0.828556
vn -0.396333 -0.395494 0.828556
vn 0.395561 -0.397401 0.828012
vn 0.395561 -0.397401 0.828012
vn 0.395561 -0.397401 0.828012
vn -0.395545 -0.397411 -0.828015
vn -0.395545 -0.397411 -0.828015
vn -0.395545 -0.397411 -0.828015
vn 0.396312 -0.395504 -0.828561
vn 0.396312 -0.395504 -0.828561
vn 0.396312 -0.395504 -0.828561
vn -0.577324 -0.577422 -0.577305
vn -0.577324 -0.577422 -0.577305
vn -0.577324 -0.577422 -0.577305
vn 0.577350 -0.577331 -0.577370
vn 0.577350 -0.577331 -0.577370
vn 0.577350 -0.577331 -0.577370
vn 0.577337 -0.577357 -0.577357
vn 0.577337 -0.577357 -0.577357
vn 0.577337 -0.577357 -0.577357
vn 0.577350 0.577370 -0.577331
vn 0.577350 0.577370 -0.577331
vn 0.577350 0.577370 -0.577331
vn 0.577350 -0.577350 0.577350
vn 0.577350 -0.577350 0.577350
vn 0.577350 -0.577350 0.577350
vn 0.577363 0.577363 0.577324
vn 0.577363 0.577363 0.577324
vn 0.577363 0.577363 0.577324
vn -0.577376 -0.577318 -0.577357
vn -0.577376 -0.577318 -0.577357
vn -0.577376 -0.577318 -0.577357
vn -0.577376 0.577318 -0.577357
vn -0.577376 0.577318 -0.577357
vn -0.577376 0.577318 -0.577357
vn -0.577389 -0.577311 0.577350
vn -0.577389 -0.577311 0.577350
vn -0.577389 -0.577311 0.577350
vn -0.577389 0.577311 0.577350
vn -0.577389 0.577311 0.577350
vn -0.577389 0.577311 0.577350
s 1
g polySurface90 polySurface67
usemtl initialShadingGroup
f 1/14/1 3/7/2 60/2/3 59/6/4
s off
f 2/123/5 1/119/6 6/120/7 5/124/8
s 2
f 3/7/9 2/15/10 9/16/11 8/8/12
s 3
f 4/31/13 6/33/14 62/25/15 61/21/16
s 4
f 5/39/17 4/31/18 15/32/19 14/40/20
s off
f 7/135/21 11/137/22 109/138/23 108/74/24
s 5
f 8/8/25 7/17/26 72/10/27 71/3/28
s 6
f 10/141/29 9/142/30 14/143/31 13/144/32
f 11/147/33 10/141/29 18/86/34 17/151/35
s off
f 12/131/36 16/127/37 88/128/38 87/132/39
s 6
f 13/144/32 12/148/40 24/152/41 23/93/42
s 8
f 16/38/43 15/32/44 66/24/45 65/29/46
s 9
f 17/85/47 20/81/48 112/92/49 111/94/50
f 19/82/51 18/86/52 23/93/53 22/87/54
s 10
f 20/81/55 19/82/56 26/83/57 25/84/58
s 9
f 21/95/59 24/101/60 92/109/61 91/102/62
s 10
f 22/87/63 21/95/64 32/96/65 31/88/66
f 25/84/58 28/90/67 101/100/68 100/91/69
f 27/89/70 26/83/57 31/88/66 30/97/71
f 28/90/67 27/89/70 34/98/72 33/99/73
f 29/104/74 32/96/65 86/103/75 85/110/76
f 30/97/71 29/104/74 40/111/77 39/105/78
s 12
f 33/99/79 36/107/80 106/113/81 105/108/82
f 35/106/83 34/98/84 39/105/85 38/112/86
s 13
f 36/157/87 35/106/88 42/158/89 41/159/90
s 12
f 37/115/91 40/111/92 82/114/93 81/116/94
s 13
f 38/112/95 37/166/96 50/167/97 49/160/98
s off
f 41/139/99 45/18/100 94/136/101 93/140/102
s 13
f 43/161/103 42/158/89 49/160/98 48/168/104
s 15
f 44/12/105 43/19/106 52/20/107 51/11/108
s 5
f 45/18/109 44/12/110 70/4/111 69/9/112
s off
f 46/37/113 50/129/114 75/130/115 74/53/116
s 8
f 47/28/117 46/37/118 68/30/119 67/23/120
s 16
f 48/35/121 47/28/122 56/27/123 55/36/124
s 1
f 51/11/125 53/13/126 58/5/127 57/1/128
s off
f 53/13/129 52/121/130 55/122/131 54/34/132
s 3
f 54/34/133 56/27/134 64/22/135 63/26/136
s 17
f 57/1/137 60/2/138 71/3/139 70/4/140
s 18
f 59/117/141 58/5/142 63/26/143 62/118/144
s 19
f 61/21/145 64/22/146 67/23/147 66/24/148
s 20
f 65/125/149 68/30/150 77/46/151 76/126/152
s 21
f 69/9/153 72/133/154 99/66/155 98/134/156
s off
f 73/47/157 75/55/158 81/56/159 80/48/160
s 22
f 74/53/161 73/47/162 78/42/163 77/46/164
f 76/45/165 79/41/166 89/51/167 88/54/168
s 23
f 79/41/169 78/42/170 84/43/171 83/44/172
s 24
f 80/48/173 82/57/174 85/49/175 84/43/176
f 83/44/177 86/50/178 91/58/179 90/52/180
s off
f 87/59/181 89/51/182 90/52/183 92/60/184
f 93/79/185 95/71/186 104/72/187 106/80/188
s 25
f 95/71/189 94/73/190 98/65/191 97/61/192
f 96/62/193 99/66/194 108/74/195 107/67/196
s 26
f 97/61/197 96/62/198 103/63/199 102/64/200
s 27
f 100/69/201 103/63/202 110/68/203 112/77/204
f 102/64/205 101/70/206 105/78/207 104/72/208
s off
f 107/67/209 109/75/210 111/76/211 110/68/212
s 6
f 9/142/30 2/123/213 5/124/214 14/143/31
f 18/86/34 10/141/29 13/144/32 23/93/42
s 10
f 26/83/57 19/82/56 22/87/63 31/88/66
f 34/98/72 27/89/70 30/97/71 39/105/78
s 13
f 42/158/89 35/106/88 38/112/95 49/160/98
f 52/173/215 43/161/103 48/168/104 55/174/216
s 18
f 58/5/142 53/13/217 54/34/218 63/26/143
f 1/119/219 59/117/141 62/118/144 6/120/220
s 19
f 64/22/146 56/27/221 47/28/222 67/23/147
f 4/31/223 61/21/145 66/24/148 15/32/224
s 23
f 78/42/170 73/47/225 80/48/226 84/43/171
f 89/51/227 79/41/169 83/44/172 90/52/228
s 17
f 51/11/229 57/1/137 70/4/140 44/12/230
f 60/2/138 3/7/231 8/8/232 71/3/139
s 26
f 95/71/233 97/61/197 102/64/200 104/72/234
f 96/62/198 107/67/235 110/68/236 103/63/199
s 20
f 68/30/150 46/37/237 74/53/238 77/46/151
s 13
f 50/167/97 37/166/96 81/169/239 75/170/240
s 10
f 40/111/77 29/104/74 85/110/76 82/114/241
s 20
f 16/127/242 65/125/149 76/126/152 88/128/243
s 10
f 32/96/65 21/95/64 91/102/244 86/103/75
s 6
f 24/152/41 12/148/40 87/155/245 92/156/246
s 21
f 45/18/247 69/9/153 98/134/156 94/136/248
s 10
f 28/90/67 33/99/73 105/108/249 101/100/68
s 13
f 36/157/87 41/159/90 93/164/250 106/165/251
s 21
f 72/133/154 7/135/252 108/74/253 99/66/155
s 6
f 11/147/33 17/151/35 111/153/254 109/154/255
s 10
f 20/81/55 25/84/58 100/91/69 112/92/256
s off
f 1/14/257 2/15/258 3/7/259
f 4/31/260 5/39/261 6/33/262
s 2
f 7/145/263 8/146/12 9/142/11 10/141/264 11/147/265
s 4
f 12/148/266 13/144/267 14/143/20 15/149/19 16/150/268
s 9
f 17/85/47 18/86/52 19/82/51 20/81/48
f 21/95/59 22/87/54 23/93/53 24/101/60
s 10
f 25/84/58 26/83/57 27/89/70 28/90/67
f 29/104/74 30/97/71 31/88/66 32/96/65
s 12
f 33/99/79 34/98/84 35/106/83 36/107/80
f 37/115/91 38/112/86 39/105/85 40/111/92
s 15
f 41/159/269 42/158/270 43/161/106 44/162/105 45/163/271
s 16
f 46/171/272 47/172/122 48/168/121 49/160/273 50/167/274
s off
f 51/11/275 52/20/276 53/13/277
f 54/34/278 55/36/279 56/27/280
s 1
f 57/1/128 58/5/127 59/6/4 60/2/3
s 3
f 61/21/16 62/25/15 63/26/136 64/22/135
s 8
f 65/29/46 66/24/45 67/23/120 68/30/119
s 5
f 69/9/112 70/4/111 71/3/28 72/10/27
s off
f 73/47/281 74/53/282 75/55/283
s 22
f 76/45/165 77/46/164 78/42/163 79/41/166
s off
f 80/48/284 81/56/285 82/57/286
s 24
f 83/44/177 84/43/176 85/49/175 86/50/178
s off
f 87/59/287 88/54/288 89/51/289
f 90/52/290 91/58/291 92/60/292
f 93/79/293 94/73/294 95/71/295
s 25
f 96/62/193 97/61/192 98/65/191 99/66/194
s 27
f 100/69/201 101/70/206 102/64/205 103/63/202
s off
f 104/72/296 105/78/297 106/80/298
f 107/67/299 108/74/300 109/75/301
f 110/68/302 111/76/303 112/77/304
